{"title":"Don't Think I've Forgotten: Cambodia's Lost Rock n Roll","uid":15042593,"size":3320790752,"categoryP":"video","categoryS":"movies","magnet":"?xt=urn:btih:0da686e8c7eba1a87f9ce37aad56e0c92a594878&amp;dn=Don%27t+Think+I%27ve+Forgotten%3A+Cambodia%27s+Lost+Rock+n+Roll&amp;tr=udp%3A%2F%2Ftracker.leechers-paradise.org%3A6969&amp;tr=udp%3A%2F%2Fzer0day.ch%3A1337&amp;tr=udp%3A%2F%2Fopen.demonii.com%3A1337&amp;tr=udp%3A%2F%2Ftracker.coppersurfer.tk%3A6969&amp;tr=udp%3A%2F%2Fexodus.desync.com%3A6969","seeders":9,"leechers":2,"uploader":"nyder2","files":1,"time":1466626560,"description":"Don't Think I've Forgotten: Cambodia's Lost Rock n Roll\r\n\r\nThrough the eyes, words, and songs of its popular music stars of the 50s, 60s, and 70s, 'Don't Think I've Forgotten: Cambodia's Lost Rock &amp; Roll' examines and unravels Cambodia's tragic past, culminating in the genocidal Khmer Rouge's dismantling of the society and murder of two million of its citizens. Combining interviews of the surviving Cambodian musicians themselves (a total of 150 hours of interviews were filmed) with never-before-seen archival material and rare songs, this documentary tracks the twists and turns of Cambodian music as it morphs into rock and roll, blossoms, and is nearly destroyed along with the rest of the country. \r\n\r\n\r\n\r\nvideo info:\r\n\r\nLanguage: Cambodia\r\nSubtitles: English\r\n\r\n\r\nGeneral\r\nComplete name               : C:UsersslackmessiahVideosAudialsAudials Recorded WebvideosCambodia - Don't Think I've Forgotten.avi\r\nFormat                      : AVI\r\nFormat/Info                 : Audio Video Interleave\r\nFormat profile              : OpenDML\r\nFile size                   : 3.09 GiB\r\nDuration                    : 1h 46mn\r\nOverall bit rate            : 4 160 Kbps\r\nWriting application         : Lavf55.33.100\r\n\r\nVideo\r\nID                          : 0\r\nFormat                      : MPEG-4 Visual\r\nFormat profile              :   \r\nFormat settings, BVOP       : No\r\nFormat settings, QPel       : No\r\nFormat settings, GMC        : No warppoints\r\nFormat settings, Matrix     : Default (H.263)\r\nCodec ID                    : XVID\r\nCodec ID/Hint               : XviD\r\nDuration                    : 1h 46mn\r\nBit rate                    : 4 020 Kbps\r\nWidth                       : 720 pixels\r\nHeight                      : 404 pixels\r\nDisplay aspect ratio        : 16:9\r\nOriginal display aspect rat : 16:9\r\nFrame rate                  : 25.000 fps\r\nColor space                 : YUV\r\nChroma subsampling          : 4:2:0\r\nBit depth                   : 8 bits\r\nScan type                   : Progressive\r\nCompression mode            : Lossy\r\nBits/(Pixel*Frame)          : 0.553\r\nStream size                 : 2.99 GiB (97%)\r\nWriting library             : Lavc55.52.102\r\n\r\nAudio\r\nID                          : 1\r\nFormat                      : MPEG Audio\r\nFormat version              : Version 1\r\nFormat profile              : Layer 3\r\nCodec ID                    : 55\r\nCodec ID/Hint               : MP3\r\nDuration                    : 1h 46mn\r\nBit rate mode               : Constant\r\nBit rate                    : 128 Kbps\r\nChannel(s)                  : 2 channels\r\nSampling rate               : 48.0 KHz\r\nCompression mode            : Lossy\r\nStream size                 : 97.5 MiB (3%)\r\nAlignment                   : Aligned on interleaves\r\nInterleave, duration        : 24 ms (0.60 video frame)","torrent":{"xt":"urn:btih:0da686e8c7eba1a87f9ce37aad56e0c92a594878","amp;dn":"Don%27t+Think+I%27ve+Forgotten%3A+Cambodia%27s+Lost+Rock+n+Roll","amp;tr":["udp%3A%2F%2Ftracker.leechers-paradise.org%3A6969","udp%3A%2F%2Fzer0day.ch%3A1337","udp%3A%2F%2Fopen.demonii.com%3A1337","udp%3A%2F%2Ftracker.coppersurfer.tk%3A6969","udp%3A%2F%2Fexodus.desync.com%3A6969"],"infoHash":"0da686e8c7eba1a87f9ce37aad56e0c92a594878","infoHashBuffer":{"type":"Buffer","data":[13,166,134,232,199,235,161,168,127,156,227,122,173,86,224,201,42,89,72,120]},"announce":[],"urlList":[]}}